<?xml version="1.0" standalone="no"?>
<!DOCTYPE svg PUBLIC "-//W3C//DTD SVG 20010904//EN"
 "http://www.w3.org/TR/2001/REC-SVG-20010904/DTD/svg10.dtd">
<svg version="1.0" xmlns="http://www.w3.org/2000/svg"
 width="960.000000pt" height="960.000000pt" viewBox="0 0 960.000000 960.000000"
 preserveAspectRatio="xMidYMid meet">

<g transform="translate(0.000000,960.000000) scale(0.100000,-0.100000)"
fill="#000000" stroke="none">
<path d="M0 4800 l0 -4800 4800 0 4800 0 0 4800 0 4800 -4800 0 -4800 0 0
-4800z m4670 1691 c0 -5 9 -13 20 -16 16 -5 19 -12 15 -28 -5 -16 -4 -18 3 -8
8 11 24 3 77 -45 195 -170 328 -370 369 -551 44 -196 -7 -385 -125 -464 -87
-57 -169 -26 -169 64 0 63 -42 140 -97 178 -124 86 -312 20 -405 -141 -86
-147 -97 -345 -31 -520 13 -36 25 -70 27 -77 1 -7 5 -16 9 -19 4 -4 7 43 7
104 l0 112 34 0 33 0 7 69 c5 53 13 75 31 95 29 32 53 25 123 -33 55 -45 77
-58 139 -76 120 -36 298 31 381 144 13 18 28 29 34 25 6 -4 8 -3 5 2 -3 6 7
37 23 69 38 77 38 63 -1 -53 -30 -91 -101 -206 -134 -218 -41 -16 4 -22 203
-26 191 -4 222 -7 262 -25 68 -31 99 -69 112 -141 16 -88 -2 -166 -45 -193
-18 -10 -44 -19 -59 -19 -16 0 -28 -4 -28 -9 0 -5 12 -11 28 -14 48 -11 91
-44 100 -79 11 -39 10 -328 0 -328 -5 0 -67 0 -138 0 l-131 0 2 166 c1 182 -1
190 -56 196 l-30 3 -2 -180 c-1 -99 -2 -183 -2 -186 -1 -4 -11 -5 -23 -4 -13
1 -78 3 -145 4 l-123 1 0 90 c0 59 -4 93 -12 100 -7 6 -55 42 -107 80 -82 62
-99 70 -137 70 l-44 0 0 -74 c0 -69 2 -76 26 -95 22 -17 41 -21 105 -21 l79 0
0 -75 0 -75 -245 0 c-135 0 -248 0 -252 0 -5 0 -9 103 -11 229 l-2 230 -44 74
c-24 40 -47 83 -51 96 -4 12 -9 20 -12 17 -3 -3 -7 -150 -9 -326 l-3 -321
-143 -1 -143 -1 -3 171 -2 172 -45 0 -45 0 0 -172 0 -173 -142 0 -143 0 -5
395 c-3 217 -3 401 -1 408 2 9 40 12 147 12 l143 0 3 -147 3 -148 40 0 40 0 3
148 3 147 125 0 126 0 -7 98 c-19 272 128 531 340 598 40 12 77 15 140 12 78
-4 93 -8 190 -57 144 -73 175 -61 175 68 0 142 -74 282 -254 481 -118 130
-176 220 -141 220 8 0 15 -4 15 -9z m-2836 -1412 c90 -24 166 -85 183 -147 5
-15 8 -137 8 -272 0 -273 -2 -281 -70 -337 -64 -53 -125 -68 -270 -68 -155 1
-221 21 -279 85 -53 58 -58 92 -54 359 l3 238 28 41 c51 78 182 123 336 116
40 -2 92 -9 115 -15z m5457 -9 c129 -42 169 -104 169 -262 l0 -78 -145 0 -145
0 -1 73 c-1 97 -7 139 -22 149 -23 15 -66 9 -77 -11 -6 -12 -10 -118 -10 -275
0 -218 2 -257 16 -270 19 -19 44 -20 68 -3 13 10 18 33 23 105 l6 92 145 0
145 0 -6 -91 c-7 -108 -23 -141 -91 -186 -71 -49 -115 -58 -266 -58 -127 0
-139 2 -197 29 -118 54 -133 91 -140 336 -9 310 11 375 131 431 106 50 276 58
397 19z m-6386 -170 l80 -180 3 180 2 180 125 0 125 0 -2 -405 -3 -405 -128
-3 -127 -2 -33 80 c-18 44 -51 124 -73 177 -21 54 -42 98 -45 98 -3 0 -4 -74
-2 -164 2 -90 1 -170 -2 -177 -4 -11 -34 -14 -125 -14 l-120 -1 0 408 0 408
123 0 122 0 80 -180z m1770 156 c100 -43 141 -135 115 -260 -10 -47 -17 -61
-43 -77 -18 -10 -44 -19 -59 -19 -37 0 -36 -16 2 -23 44 -9 81 -37 95 -72 9
-19 14 -85 14 -182 l2 -153 -31 0 c-16 -1 -78 -1 -137 -1 l-108 -1 -2 168 c-2
182 -5 190 -58 196 l-30 3 -2 -165 c-1 -91 -2 -173 -3 -182 0 -15 -17 -17
-145 -20 l-145 -3 0 409 0 409 248 -5 c202 -4 254 -8 287 -22z m825 -56 l0
-80 -85 0 -85 0 0 -330 0 -331 -27 5 c-16 2 -81 5 -145 5 l-118 1 0 325 0 325
-90 0 -90 0 0 80 0 80 320 0 320 0 0 -80z m2566 -95 c43 -96 81 -175 84 -175
3 0 5 78 5 172 l0 173 123 3 122 3 0 -406 0 -405 -120 0 c-66 0 -123 -1 -127
-2 -8 -2 -46 82 -119 262 l-39 95 -5 -179 -5 -180 -120 2 -120 1 -3 406 -2
405 124 0 124 0 78 -175z m1796 -166 c3 -313 4 -343 21 -353 12 -8 22 -8 35 0
15 10 17 41 22 350 l5 339 148 3 147 3 0 -313 c0 -172 -3 -331 -7 -352 -9 -59
-76 -120 -160 -146 -149 -46 -365 -16 -451 64 -51 46 -53 55 -58 402 -2 179
-2 329 1 335 4 5 70 9 150 9 l145 0 2 -341z m1008 317 c67 -25 97 -59 111
-125 13 -65 7 -215 -10 -252 -26 -54 -141 -90 -268 -84 l-53 2 0 -164 0 -163
-122 -1 c-68 -1 -134 -2 -148 -3 l-25 -1 -3 409 -2 408 237 -4 c190 -4 247 -8
283 -22z m-2784 -953 l-1 -38 71 -7 c176 -18 312 -118 349 -258 12 -47 12 -58
-6 -115 -22 -72 -84 -145 -159 -188 -108 -62 -285 -76 -416 -32 -41 14 -78 25
-83 25 -4 0 -35 -35 -68 -77 -74 -95 -173 -197 -253 -257 -33 -26 -62 -46 -65
-46 -2 0 -24 -13 -48 -30 -25 -16 -50 -30 -57 -30 -6 0 -10 -6 -8 -12 4 -10
118 -14 509 -18 l504 -5 -65 -31 c-77 -37 -274 -108 -345 -124 -111 -25 -273
-48 -450 -64 -144 -14 -747 -37 -820 -31 -44 3 -195 10 -335 15 -140 6 -304
15 -365 20 -241 22 -488 82 -687 168 -141 60 -161 57 398 54 294 -1 511 1 517
7 5 5 -17 24 -55 47 -101 61 -163 110 -253 199 -205 204 -346 464 -415 758
-11 48 -20 92 -20 97 0 6 480 10 1314 10 l1313 0 -1 -37z"/>
<path d="M4908 5022 c-35 -16 -38 -20 -38 -59 l0 -43 -100 0 -100 0 0 -70 c0
-84 7 -90 109 -90 l71 0 0 -68 c0 -40 5 -75 13 -83 15 -19 92 -79 101 -79 3 0
6 115 6 255 0 279 4 266 -62 237z"/>
<path d="M5270 4854 c0 -88 1 -94 21 -94 48 0 59 16 59 89 0 73 -6 85 -52 93
l-28 5 0 -93z"/>
<path d="M4865 4560 c-3 -6 1 -7 9 -4 18 7 21 14 7 14 -6 0 -13 -4 -16 -10z"/>
<path d="M4951 4504 c0 -11 3 -14 6 -6 3 7 2 16 -1 19 -3 4 -6 -2 -5 -13z"/>
<path d="M1660 4950 c-12 -8 -16 -49 -18 -242 -2 -128 -1 -252 3 -275 7 -47
30 -62 65 -43 20 11 20 17 18 288 l-3 277 -25 3 c-14 1 -32 -2 -40 -8z"/>
<path d="M2438 4854 c-3 -95 2 -105 51 -88 24 9 26 14 29 78 3 77 -6 96 -48
96 l-29 0 -3 -86z"/>
<path d="M8650 4835 l0 -105 29 0 c48 0 61 22 61 105 0 83 -13 105 -61 105
l-29 0 0 -105z"/>
<path d="M5222 4041 c26 -4 56 -15 67 -25 30 -27 27 -71 -5 -93 -25 -16 -28
-16 -58 1 -31 17 -31 17 -11 -2 11 -11 34 -23 52 -27 25 -5 35 -2 52 16 24 26
25 34 10 79 -14 38 -59 61 -116 59 -37 -2 -37 -2 9 -8z"/>
<path d="M5164 3984 c-17 -25 -57 -174 -49 -182 2 -2 16 1 32 6 15 6 21 11 12
11 -11 1 -14 9 -11 31 2 16 8 27 13 24 8 -4 13 38 7 51 -2 2 4 10 13 17 9 7
19 25 23 41 8 36 -17 37 -40 1z"/>
<path d="M6060 3903 c-21 -3 -31 -19 -68 -111 -24 -59 -44 -116 -45 -126 -3
-33 66 -66 141 -66 101 0 179 45 203 117 33 102 -97 207 -231 186z"/>
<path d="M4670 3809 c13 -6 28 -15 32 -22 5 -8 8 -7 8 4 0 18 -20 29 -48 28
-11 0 -8 -4 8 -10z"/>
<path d="M4828 3807 c7 -8 9 -16 6 -20 -8 -8 -64 -218 -64 -239 0 -34 29 -19
39 20 28 112 49 217 44 228 -2 7 -12 15 -20 18 -12 5 -13 4 -5 -7z"/>
<path d="M5512 3799 c37 -27 46 -78 22 -118 -22 -37 -85 -61 -160 -61 l-53 0
-7 -46 c-7 -49 2 -64 40 -64 19 0 19 0 1 13 -13 10 -16 21 -12 39 7 28 30 38
90 38 107 0 176 94 125 169 -13 19 -34 38 -48 43 -25 8 -25 8 2 -13z"/>
<path d="M4368 3794 c34 -24 45 -50 31 -76 -7 -13 -17 -26 -23 -30 -19 -13
-54 -9 -70 8 -9 8 -16 11 -16 6 0 -16 47 -42 76 -42 28 0 95 61 75 68 -6 2
-11 11 -11 21 0 18 -50 61 -72 61 -7 0 -2 -7 10 -16z"/>
<path d="M5187 3790 c-4 -16 -14 -20 -44 -20 l-39 0 -18 -87 c-39 -190 -95
-324 -157 -379 -47 -41 -119 -51 -156 -21 -19 14 -17 -8 2 -23 22 -18 105 -17
145 2 19 9 53 38 75 64 21 26 33 44 25 39 -11 -6 -11 -4 1 11 9 10 22 37 29
59 7 22 16 49 20 60 12 30 28 92 48 175 l17 75 38 3 c31 3 37 7 37 27 0 30
-16 41 -23 15z"/>
<path d="M5285 3780 c-3 -6 1 -7 9 -4 18 7 21 14 7 14 -6 0 -13 -4 -16 -10z"/>
<path d="M5403 3779 c-22 -8 -49 -51 -64 -101 -7 -27 -6 -28 24 -27 18 0 26 3
20 6 -16 6 -17 33 -2 33 6 0 8 7 5 16 -4 10 3 23 16 35 26 21 48 25 48 7 0 -6
2 -9 5 -6 8 8 -5 36 -18 41 -7 2 -22 1 -34 -4z"/>
<path d="M4231 3754 c-21 -26 -54 -119 -66 -186 -8 -40 13 -69 48 -67 16 1 17
3 5 6 -26 7 -28 26 -11 94 29 116 64 179 84 148 6 -10 9 -8 9 9 0 32 -43 30
-69 -4z"/>
<path d="M4614 3756 c-19 -30 -64 -190 -64 -228 0 -23 4 -28 24 -28 14 0 28 4
31 10 4 6 -1 7 -11 3 -14 -5 -15 -1 -9 38 4 24 13 62 21 83 7 22 11 43 8 48
-3 4 -1 8 4 8 5 0 12 14 16 30 7 36 33 40 46 8 l9 -23 0 22 c1 24 -23 53 -44
53 -8 0 -22 -11 -31 -24z"/>
<path d="M4946 3772 c-17 -4 -16 -5 5 -16 27 -14 39 -11 39 8 0 13 -11 15 -44
8z"/>
<path d="M4485 3749 c-4 -6 -5 -12 -2 -15 2 -3 7 2 10 11 7 17 1 20 -8 4z"/>
<path d="M4334 3567 l-29 -32 30 27 c42 38 66 23 31 -19 -55 -65 -171 -92
-253 -58 -31 13 -34 13 -23 0 7 -8 18 -15 25 -15 8 0 15 -4 17 -10 2 -8 60
-11 155 -8 13 0 21 4 18 8 -5 8 33 26 47 22 13 -3 60 68 55 82 -3 8 -14 19
-25 25 -16 8 -24 4 -48 -22z"/>
<path d="M4856 3583 c4 -12 -9 -35 -36 -66 -38 -42 -46 -47 -85 -47 -33 0 -47
5 -58 21 l-15 20 -33 -20 c-59 -36 -131 -24 -178 29 -9 11 -9 8 1 -10 9 -14
33 -35 54 -47 44 -26 58 -29 48 -10 -5 9 -4 9 6 0 9 -8 20 -9 37 -2 14 5 29 6
35 3 7 -5 8 -2 3 6 -6 10 -4 12 8 7 10 -3 17 -2 17 4 0 5 14 2 32 -7 36 -19
108 -21 118 -3 4 6 12 9 17 6 12 -8 56 86 51 110 -2 9 -8 18 -15 20 -7 3 -10
-3 -7 -14z"/>
<path d="M5537 3581 c6 -24 -68 -88 -116 -101 -65 -18 -145 -13 -177 12 -16
12 -32 27 -36 33 -5 7 -8 7 -8 0 0 -11 24 -34 63 -60 54 -35 178 -20 248 29
27 20 53 34 58 32 4 -3 3 10 -3 29 -11 35 -38 59 -29 26z"/>
<path d="M5446 3577 c3 -10 9 -15 12 -12 3 3 0 11 -7 18 -10 9 -11 8 -5 -6z"/>
<path d="M5479 3563 c-13 -16 -12 -17 4 -4 16 13 21 21 13 21 -2 0 -10 -8 -17
-17z"/>
<path d="M4820 3387 c17 -9 27 -23 30 -47 5 -35 29 -48 38 -21 3 8 0 11 -6 7
-6 -3 -8 1 -5 13 5 20 -38 61 -66 61 -10 0 -7 -5 9 -13z"/>
</g>
</svg>
